<svg width="58" height="80" viewBox="0 0 58 80" fill="none" xmlns="http://www.w3.org/2000/svg">
<g id="Group 1">
<path id="Vector" d="M32.2499 22.0189C32.2001 22.0189 32.1502 22.0227 32.1016 22.0291C32.0466 22.0202 31.9903 22.0163 31.9353 22.0189C31.8855 22.0278 31.8356 22.0278 31.7857 22.0176C31.1629 22.0112 30.5401 22.0355 29.9186 22.0905C29.2971 22.1455 28.6807 22.2299 28.0682 22.3463C27.4556 22.4614 26.8494 22.6071 26.2522 22.7836C25.6537 22.9588 25.0655 23.1634 24.4874 23.3975C23.9094 23.6315 23.3441 23.8924 22.7917 24.1827C22.2392 24.4717 21.7021 24.7876 21.1816 25.1303C20.6612 25.473 20.1573 25.84 19.6726 26.2326C19.1879 26.6252 18.7237 27.0396 18.28 27.4782C17.8362 27.9156 17.4155 28.3747 17.0178 28.8542C16.6188 29.3338 16.2453 29.8325 15.8962 30.3492C15.5471 30.8658 15.2236 31.3978 14.9269 31.9465C14.6302 32.4951 14.3616 33.0565 14.1199 33.632C13.8795 34.2074 13.6672 34.7919 13.4843 35.3891C13.3002 35.985 13.1467 36.5886 13.024 37.1986C12.8999 37.8099 12.8066 38.4263 12.7439 39.0465C12.6812 39.6668 12.648 40.2883 12.6467 40.9124C12.6403 42.3101 12.7682 43.6964 13.0304 45.0698C13.4728 47.1774 14.2184 49.1736 15.2658 51.0561C17.106 53.8183 19.2596 56.3108 21.7239 58.5334C22.1177 58.894 22.4848 59.2789 22.8275 59.6894C23.1689 60.0987 23.4835 60.5284 23.7687 60.9785C24.0539 61.4299 24.3084 61.8967 24.5322 62.3814C24.756 62.8661 24.9478 63.3623 25.1051 63.8712C25.2637 64.3815 25.3877 64.8994 25.4785 65.425C25.568 65.9506 25.623 66.48 25.6435 67.0133C25.6639 67.5466 25.6486 68.0786 25.5987 68.6093C25.5489 69.1413 25.4645 69.6669 25.3455 70.1861L38.0801 70.2731C37.9663 69.7513 37.887 69.2244 37.8435 68.6924C37.7988 68.1592 37.7898 67.6272 37.8167 67.0939C37.8423 66.5593 37.9037 66.0312 38.0008 65.5056C38.0968 64.98 38.2272 64.4633 38.3909 63.9556C38.5559 63.4467 38.7528 62.9518 38.983 62.4696C39.2132 61.9875 39.4741 61.5233 39.7644 61.0757C40.0559 60.6281 40.3756 60.201 40.7235 59.7956C41.07 59.3902 41.4435 59.0091 41.8412 58.6536C44.3375 56.463 46.5255 53.9974 48.4041 51.2581C49.4707 49.3948 50.238 47.4152 50.7048 45.3192C50.9848 43.947 51.1306 42.5608 51.1409 41.1604C51.1472 40.5377 51.1217 39.9161 51.0667 39.2946C51.0104 38.6744 50.9247 38.058 50.8084 37.4454C50.692 36.8329 50.5449 36.228 50.3697 35.6308C50.1932 35.0323 49.9886 34.4453 49.7546 33.8673C49.5206 33.2892 49.2584 32.7253 48.9681 32.1728C48.6791 31.6216 48.3632 31.0845 48.0205 30.564C47.6778 30.0436 47.3107 29.541 46.9181 29.0563C46.5268 28.5716 46.1112 28.1074 45.6738 27.6649C45.2365 27.2212 44.7774 26.7992 44.2978 26.4014C43.8183 26.0024 43.3208 25.629 42.8054 25.2799C42.2888 24.9308 41.7568 24.6072 41.2094 24.3105C40.6608 24.0139 40.0994 23.744 39.5252 23.5023C38.951 23.2606 38.3653 23.0483 37.7707 22.8642C37.1747 22.68 36.5724 22.5266 35.9611 22.4013C35.3498 22.2772 34.7347 22.1826 34.1158 22.1186C33.4955 22.0547 32.874 22.0214 32.2499 22.0189ZM45.6828 30.2916C48.6075 34.045 49.2277 39.0312 47.899 44.1452C47.4757 45.7681 47.1381 45.6479 47.1176 43.9342C47.1164 43.4112 47.0933 42.8894 47.0499 42.3677C47.0051 41.8472 46.9399 41.3293 46.8529 40.8139C46.766 40.2972 46.6573 39.787 46.5281 39.2806C46.3989 38.7741 46.2493 38.2728 46.078 37.7792C45.9079 37.2843 45.7173 36.7983 45.5063 36.3201C45.2953 35.8418 45.0651 35.3724 44.8157 34.9133C44.5664 34.4542 44.2978 34.0054 44.0114 33.568C43.7236 33.1307 43.4205 32.7061 43.0983 32.2943C42.776 31.8825 42.4384 31.4835 42.0829 31.0999C41.7286 30.7162 41.3591 30.3466 40.9729 29.9937C40.5879 29.6407 40.1889 29.3031 39.7759 28.9821C39.3628 28.6624 38.937 28.3593 38.4983 28.0742C38.061 27.789 37.6108 27.5217 37.1517 27.2736C36.6913 27.0255 36.2207 26.7966 35.7424 26.5881C35.2629 26.3784 34.7756 26.1892 34.2807 26.0203C33.7871 25.8515 33.2858 25.7032 32.7781 25.5753C31.1322 25.106 31.1041 24.7658 32.7781 24.7556C38.0648 24.7044 42.7543 26.5344 45.6828 30.2916Z" fill="url(#paint0_linear_2249_2381)"/>
<path id="Vector_2" d="M24.1577 71.479C24.1628 71.5775 24.1782 71.6759 24.2025 71.7718C24.2268 71.8678 24.2613 71.9611 24.3035 72.0506C24.347 72.1401 24.3981 72.2245 24.457 72.3051C24.5171 72.3844 24.5836 72.4573 24.6577 72.5238C24.7319 72.5903 24.8112 72.6478 24.8969 72.699C24.9826 72.7501 25.0721 72.7911 25.1667 72.8243C25.2601 72.8576 25.356 72.8806 25.4545 72.8947C25.5529 72.9087 25.6514 72.9138 25.7511 72.9074L37.6174 73.0008C37.7172 73.0059 37.8156 73.0021 37.9141 72.988C38.0139 72.9752 38.1098 72.9522 38.2044 72.919C38.2978 72.887 38.3886 72.8448 38.4742 72.7949C38.5599 72.7438 38.6405 72.6862 38.7159 72.6197C38.7901 72.5545 38.8579 72.4816 38.918 72.4023C38.9781 72.323 39.0305 72.2386 39.0753 72.1491C39.1188 72.0596 39.1533 71.9675 39.1789 71.8703C39.2057 71.7744 39.2211 71.6772 39.2275 71.5775C39.2224 71.4777 39.207 71.3805 39.1814 71.2846C39.1571 71.1887 39.1226 71.0953 39.0804 71.0058C39.0369 70.9163 38.9858 70.8319 38.9257 70.7526C38.8656 70.6733 38.7991 70.6004 38.7249 70.5352C38.6507 70.4687 38.5714 70.4099 38.4858 70.36C38.4014 70.3089 38.3118 70.2667 38.2172 70.2347C38.1238 70.2014 38.0279 70.1771 37.9295 70.1631C37.8323 70.149 37.7325 70.1452 37.6341 70.1503L25.7742 70.071C25.6757 70.0646 25.5759 70.0672 25.4775 70.0799C25.379 70.0927 25.2818 70.1158 25.1885 70.1464C25.0938 70.1784 25.003 70.2193 24.9173 70.2679C24.8304 70.3178 24.7498 70.3754 24.6744 70.4406C24.6002 70.5058 24.5324 70.5774 24.471 70.6567C24.4096 70.7347 24.3572 70.8191 24.3125 70.9086C24.269 70.9969 24.2332 71.0889 24.2076 71.1861C24.1807 71.282 24.1641 71.3792 24.1577 71.479Z" fill="#272747"/>
<path id="Vector_3" d="M24.1318 75.0931C24.1382 75.1916 24.1536 75.2888 24.1792 75.3834C24.2047 75.4793 24.2393 75.5714 24.2827 75.6597C24.3262 75.7492 24.3787 75.8323 24.4375 75.9116C24.4976 75.9896 24.5654 76.0612 24.6395 76.1264C24.7137 76.1929 24.793 76.2505 24.8787 76.2991C24.9631 76.349 25.0526 76.3899 25.146 76.4231C25.2393 76.4551 25.3352 76.4768 25.4337 76.4909C25.5309 76.5037 25.6293 76.5075 25.7278 76.5024L37.5813 76.5907C37.6811 76.597 37.7795 76.5945 37.8793 76.583C37.9778 76.5702 38.0749 76.5485 38.1696 76.5165C38.2642 76.4858 38.355 76.4449 38.442 76.3963C38.5289 76.3464 38.6108 76.2888 38.6862 76.2236C38.7617 76.1584 38.8295 76.0868 38.8908 76.0075C38.9522 75.9295 39.0059 75.8451 39.0507 75.7556C39.0955 75.6661 39.1313 75.574 39.1581 75.4781C39.1837 75.3809 39.2016 75.2837 39.208 75.1839C39.2016 75.0855 39.1863 74.987 39.1607 74.8924C39.1364 74.7965 39.1018 74.7031 39.0584 74.6149C39.0149 74.5253 38.9637 74.4409 38.9049 74.3616C38.8448 74.2836 38.7783 74.2107 38.7041 74.1442C38.6312 74.0777 38.552 74.0202 38.4663 73.969C38.3819 73.9179 38.2923 73.877 38.199 73.8437C38.1056 73.8105 38.0097 73.7862 37.9125 73.7708C37.8141 73.7568 37.7156 73.7516 37.6171 73.7555L25.7444 73.6839C25.646 73.6788 25.5462 73.6813 25.4478 73.6941C25.3493 73.7082 25.2534 73.7299 25.16 73.7619C25.0654 73.7938 24.9759 73.8348 24.8889 73.8846C24.8032 73.9332 24.7227 73.9908 24.6485 74.056C24.573 74.1212 24.5053 74.1941 24.4451 74.2721C24.3838 74.3514 24.3313 74.4345 24.2879 74.5241C24.2431 74.6123 24.2073 74.7044 24.1817 74.8003C24.1549 74.8962 24.1382 74.9934 24.1318 75.0931Z" fill="#272747"/>
<path id="Vector_4" d="M26.2896 78.5217C26.2947 78.6201 26.3087 78.7186 26.333 78.8145C26.3586 78.9117 26.3919 79.0051 26.4341 79.0946C26.4775 79.1841 26.5287 79.2698 26.5888 79.3491C26.6476 79.4283 26.7154 79.5012 26.7896 79.5677C26.8637 79.6342 26.943 79.6918 27.03 79.7429C27.1157 79.7928 27.2052 79.835 27.2998 79.867C27.3932 79.9002 27.4904 79.922 27.5888 79.936C27.6873 79.9488 27.7858 79.9527 27.8855 79.9463L35.3923 79.9961C35.492 80.0038 35.5905 80 35.689 79.9872C35.7874 79.9757 35.8834 79.9527 35.978 79.9207C36.0713 79.89 36.1621 79.8491 36.2478 79.7992C36.3348 79.7506 36.4153 79.6931 36.4895 79.6278C36.565 79.5626 36.6315 79.4897 36.6929 79.4117C36.753 79.3324 36.8054 79.2493 36.8502 79.1598C36.8936 79.0703 36.9282 78.9782 36.9537 78.8823C36.9806 78.7864 36.9959 78.6892 37.0023 78.5894C36.9959 78.491 36.9806 78.3938 36.955 78.2979C36.9307 78.2032 36.8962 78.1099 36.8527 78.0216C36.8092 77.9321 36.7581 77.8477 36.6992 77.7697C36.6391 77.6904 36.5726 77.6175 36.4998 77.551C36.4256 77.4858 36.3463 77.427 36.2619 77.3758C36.1762 77.3259 36.088 77.2837 35.9946 77.2505C35.9013 77.2172 35.8053 77.1929 35.7082 77.1776C35.611 77.1635 35.5125 77.1571 35.4127 77.1623L27.8983 77.1252C27.7999 77.1175 27.7014 77.1201 27.6029 77.1328C27.5044 77.1443 27.4085 77.1661 27.3152 77.1981C27.2205 77.2288 27.131 77.2697 27.0453 77.3183C26.9597 77.3669 26.8791 77.4244 26.8036 77.4884C26.7295 77.5536 26.6617 77.6252 26.6016 77.7032C26.5402 77.7812 26.4878 77.8656 26.4443 77.9538C26.3995 78.0421 26.365 78.1342 26.3394 78.2301C26.3126 78.3247 26.2972 78.4219 26.2896 78.5217Z" fill="#272747"/>
<g id="Clip path group">
<mask id="mask0_2249_2381" style="mask-type:luminance" maskUnits="userSpaceOnUse" x="0" y="0" width="58" height="36">
<g id="65f9c8c618">
<path id="Vector_5" d="M0.789551 0H57.7539V35.0298H0.789551V0Z" fill="white"/>
</g>
</mask>
<g mask="url(#mask0_2249_2381)">
<g id="Group">
<path id="Vector_6" d="M55.3036 11.8802L55.3548 11.8393L25.2638 0.11499L0.789551 21.185L11.6392 24.9218L13.3694 35.0233C15.2033 33.4925 17.1906 32.1945 19.3301 31.1318C21.4695 30.0678 23.7037 29.2685 26.0324 28.7314C26.6961 28.5767 27.3714 28.4399 28.0415 28.326C29.7705 28.0204 31.5122 27.8554 33.2681 27.8311C35.0239 27.8056 36.7695 27.9219 38.5062 28.1777C40.2441 28.4347 41.9488 28.8273 43.6228 29.3581C45.2955 29.89 46.9158 30.5512 48.4836 31.3428L46.7713 21.3411C46.1561 20.9242 45.5244 20.529 44.876 20.1569C43.3568 19.2988 41.78 18.5685 40.1443 17.9649C38.5074 17.3613 36.8334 16.892 35.1224 16.5582C33.41 16.2232 31.6823 16.0288 29.9393 15.9725C28.1962 15.9175 26.4596 16.0019 24.7306 16.2257C25.1424 16.14 25.5541 16.0467 25.9646 15.9764C27.6898 15.672 29.429 15.507 31.1797 15.4827C32.9317 15.4571 34.6735 15.5722 36.4063 15.828C38.1391 16.0825 39.8413 16.4738 41.5114 17.002C43.1816 17.5301 44.798 18.1887 46.3633 18.9765L46.3646 18.9778L46.3659 18.9752L53.714 13.1425L56.0901 22.382L55.8765 26.083L57.7065 25.8988L56.1579 22.3692L55.3036 11.8802Z" fill="#272747"/>
</g>
</g>
</g>
</g>
<defs>
<linearGradient id="paint0_linear_2249_2381" x1="12.6465" y1="46.1448" x2="51.1418" y2="46.1448" gradientUnits="userSpaceOnUse">
<stop stop-color="#2CD4F8"/>
<stop offset="1" stop-color="#9747FF"/>
</linearGradient>
</defs>
</svg>
